<svg fill="#1A1A1A" xmlns="http://www.w3.org/2000/svg"  viewBox="0 0 32 32" width="64px" height="64px"><path d="M 9 1 C 8.448 1 8 1.448 8 2 C 8 2.552 8.448 3 9 3 L 10 3 L 10 5 L 4.0429688 5 C 3.1809687 5 2.3552969 5.3621406 1.7792969 5.9941406 C 1.2152969 6.6131406 0.93667188 7.4454375 1.0136719 8.2734375 L 2.6835938 26.273438 C 2.8285938 27.828437 4.1318437 29 5.7148438 29 L 10 29 L 10 30 C 10 30.552 10.448 31 11 31 C 11.552 31 12 30.552 12 30 L 12 29 L 16.285156 29 C 17.868156 29 19.170453 27.828437 19.314453 26.273438 L 20.986328 8.2734375 C 21.063328 7.4444375 20.78375 6.6131406 20.21875 5.9941406 C 19.64375 5.3631406 18.819031 5 17.957031 5 L 12 5 L 12 2 C 12 1.448 11.552 1 11 1 L 9 1 z M 30 5 C 27.24 5 25 7.24 25 10 L 25 22 C 25 22.55 25.45 23 26 23 L 29 23 L 29 30 C 29 30.55 29.45 31 30 31 C 30.55 31 31 30.55 31 30 L 31 6 C 31 5.45 30.55 5 30 5 z M 4.0429688 7 L 17.955078 7 C 18.261078 7 18.540188 7.1217969 18.742188 7.3417969 C 18.931188 7.5487969 19.020141 7.8148437 18.994141 8.0898438 L 18.539062 13 L 13 13 C 12.448 13 12 13.448 12 14 C 12 14.552 12.448 15 13 15 L 18.353516 15 L 17.611328 23 L 14 23 C 13.448 23 13 23.448 13 24 C 13 24.552 13.448 25 14 25 L 17.425781 25 L 17.324219 26.089844 C 17.276219 26.608844 16.829156 27 16.285156 27 L 5.7148438 27 C 5.1708437 27 4.7237813 26.608844 4.6757812 26.089844 L 4.3886719 23 L 9 23 C 9.552 23 10 22.552 10 22 C 10 21.448 9.552 21 9 21 L 4.203125 21 L 3.8320312 17 L 7 17 C 7.552 17 8 16.552 8 16 C 8 15.448 7.552 15 7 15 L 3.6464844 15 L 3.2753906 11 L 8 11 C 8.552 11 9 10.552 9 10 C 9 9.448 8.552 9 8 9 L 3.0898438 9 L 3.0039062 8.0878906 C 2.9789063 7.8138906 3.0688125 7.5487969 3.2578125 7.3417969 C 3.4588125 7.1217969 3.7379688 7 4.0429688 7 z M 11 9 C 10.448 9 10 9.448 10 10 C 10 10.552 10.448 11 11 11 L 12 11 C 12.552 11 13 10.552 13 10 C 13 9.448 12.552 9 12 9 L 11 9 z M 12 18 C 11.448 18 11 18.448 11 19 C 11 19.552 11.448 20 12 20 L 15 20 C 15.552 20 16 19.552 16 19 C 16 18.448 15.552 18 15 18 L 12 18 z"/></svg>